<svg width="48" height="48" viewBox="0 0 48 48" fill="none" xmlns="http://www.w3.org/2000/svg">
<path d="M30.803 8.70909V9.20909H31.303H35.0606C36.8629 9.20909 38.3182 10.6549 38.3182 12.4182V38.3818C38.3182 40.1451 36.8629 41.5909 35.0606 41.5909H8.75758C6.95527 41.5909 5.5 40.1451 5.5 38.3818V12.4182C5.5 10.6549 6.95527 9.20909 8.75758 9.20909H12.5152H13.0152V8.70909V5.5H15.7727V8.70909V9.20909H16.2727H27.5455H28.0455V8.70909V5.5H30.803V8.70909ZM17.7739 38.8577H17.9789L18.1249 38.7138L27.4756 29.4967L27.8366 29.1409L27.4759 28.7848L24.0959 25.4484L23.7449 25.102L23.3937 25.4482L14.0429 34.6653L13.8939 34.8122V35.0214V38.3577V38.8577H14.3939H17.7739ZM28.3647 27.9257L28.7158 28.2722L29.0671 27.9258L31.6448 25.3832L32.0055 25.0274L31.6449 24.6714L28.265 21.3351L27.9138 20.9885L27.5626 21.3349L24.9849 23.8775L24.6241 24.2334L24.9848 24.5893L28.3647 27.9257ZM8.75758 13.7727H8.25758V14.2727V17.9818V18.4818H8.75758H35.0606H35.5606V17.9818V14.2727V13.7727H35.0606H8.75758Z" fill="#00BCD4"/>
<path d="M30.803 8.70909V9.20909H31.303H35.0606C36.8629 9.20909 38.3182 10.6549 38.3182 12.4182V38.3818C38.3182 40.1451 36.8629 41.5909 35.0606 41.5909H8.75758C6.95527 41.5909 5.5 40.1451 5.5 38.3818V12.4182C5.5 10.6549 6.95527 9.20909 8.75758 9.20909H12.5152H13.0152V8.70909V5.5H15.7727V8.70909V9.20909H16.2727H27.5455H28.0455V8.70909V5.5H30.803V8.70909ZM17.7739 38.8577H17.9789L18.1249 38.7138L27.4756 29.4967L27.8366 29.1409L27.4759 28.7848L24.0959 25.4484L23.7449 25.102L23.3937 25.4482L14.0429 34.6653L13.8939 34.8122V35.0214V38.3577V38.8577H14.3939H17.7739ZM28.3647 27.9257L28.7158 28.2722L29.0671 27.9258L31.6448 25.3832L32.0055 25.0274L31.6449 24.6714L28.265 21.3351L27.9138 20.9885L27.5626 21.3349L24.9849 23.8775L24.6241 24.2334L24.9848 24.5893L28.3647 27.9257ZM8.75758 13.7727H8.25758V14.2727V17.9818V18.4818H8.75758H35.0606H35.5606V17.9818V14.2727V13.7727H35.0606H8.75758Z" stroke="url(#paint0_angular)"/>
<path d="M30.803 8.70909V9.20909H31.303H35.0606C36.8629 9.20909 38.3182 10.6549 38.3182 12.4182V38.3818C38.3182 40.1451 36.8629 41.5909 35.0606 41.5909H8.75758C6.95527 41.5909 5.5 40.1451 5.5 38.3818V12.4182C5.5 10.6549 6.95527 9.20909 8.75758 9.20909H12.5152H13.0152V8.70909V5.5H15.7727V8.70909V9.20909H16.2727H27.5455H28.0455V8.70909V5.5H30.803V8.70909ZM17.7739 38.8577H17.9789L18.1249 38.7138L27.4756 29.4967L27.8366 29.1409L27.4759 28.7848L24.0959 25.4484L23.7449 25.102L23.3937 25.4482L14.0429 34.6653L13.8939 34.8122V35.0214V38.3577V38.8577H14.3939H17.7739ZM28.3647 27.9257L28.7158 28.2722L29.0671 27.9258L31.6448 25.3832L32.0055 25.0274L31.6449 24.6714L28.265 21.3351L27.9138 20.9885L27.5626 21.3349L24.9849 23.8775L24.6241 24.2334L24.9848 24.5893L28.3647 27.9257ZM8.75758 13.7727H8.25758V14.2727V17.9818V18.4818H8.75758H35.0606H35.5606V17.9818V14.2727V13.7727H35.0606H8.75758Z" stroke="url(#paint1_linear)"/>
<path d="M8.75758 42.0909H35.0606C37.1329 42.0909 38.8182 40.4274 38.8182 38.3818V12.4182C38.8182 10.3726 37.1329 8.70909 35.0606 8.70909H31.303V5H27.5455V8.70909H16.2727V5H12.5152V8.70909H8.75758C6.68527 8.70909 5 10.3726 5 12.4182V38.3818C5 40.4274 6.68527 42.0909 8.75758 42.0909ZM17.7739 38.3577H14.3939V35.0214L23.7447 25.8043L27.1246 29.1406L17.7739 38.3577ZM28.7159 27.5698L25.336 24.2335L27.9137 21.6909L31.2936 25.0272L28.7159 27.5698ZM8.75758 14.2727H35.0606V17.9818H8.75758V14.2727Z" fill="#00BCD4"/>
<path d="M8.75758 42.0909H35.0606C37.1329 42.0909 38.8182 40.4274 38.8182 38.3818V12.4182C38.8182 10.3726 37.1329 8.70909 35.0606 8.70909H31.303V5H27.5455V8.70909H16.2727V5H12.5152V8.70909H8.75758C6.68527 8.70909 5 10.3726 5 12.4182V38.3818C5 40.4274 6.68527 42.0909 8.75758 42.0909ZM17.7739 38.3577H14.3939V35.0214L23.7447 25.8043L27.1246 29.1406L17.7739 38.3577ZM28.7159 27.5698L25.336 24.2335L27.9137 21.6909L31.2936 25.0272L28.7159 27.5698ZM8.75758 14.2727H35.0606V17.9818H8.75758V14.2727Z" stroke="#448AFF"/>
<path d="M8.75758 42.0909H35.0606C37.1329 42.0909 38.8182 40.4274 38.8182 38.3818V12.4182C38.8182 10.3726 37.1329 8.70909 35.0606 8.70909H31.303V5H27.5455V8.70909H16.2727V5H12.5152V8.70909H8.75758C6.68527 8.70909 5 10.3726 5 12.4182V38.3818C5 40.4274 6.68527 42.0909 8.75758 42.0909ZM17.7739 38.3577H14.3939V35.0214L23.7447 25.8043L27.1246 29.1406L17.7739 38.3577ZM28.7159 27.5698L25.336 24.2335L27.9137 21.6909L31.2936 25.0272L28.7159 27.5698ZM8.75758 14.2727H35.0606V17.9818H8.75758V14.2727Z" stroke="url(#paint2_radial)" stroke-opacity="0.5"/>
<defs>
<radialGradient id="paint0_angular" cx="0" cy="0" r="1" gradientUnits="userSpaceOnUse" gradientTransform="translate(21.9091 23.5455) rotate(90) scale(18.5455 16.9091)">
<stop offset="0.21875" stop-color="#3E4FAE"/>
<stop offset="0.635417" stop-color="#364FD9" stop-opacity="0"/>
</radialGradient>
<linearGradient id="paint1_linear" x1="21.9091" y1="5" x2="21.9091" y2="42.0909" gradientUnits="userSpaceOnUse">
<stop stop-color="white"/>
<stop offset="1" stop-color="white" stop-opacity="0"/>
</linearGradient>
<radialGradient id="paint2_radial" cx="0" cy="0" r="1" gradientUnits="userSpaceOnUse" gradientTransform="translate(5 1.5) rotate(44.5993) scale(50.5594 46.0983)">
<stop offset="0.395833" stop-color="white" stop-opacity="0"/>
<stop offset="1" stop-color="#3F51B5"/>
</radialGradient>
</defs>
</svg>
